<?xml version="1.0" encoding="utf-8"?>
<svg xmlns="http://www.w3.org/2000/svg"
 xmlns:xlink="http://www.w3.org/1999/xlink" width="800" height="600" >
<defs>
    <style type="text/css"><![CDATA[
        line {
        stroke: #000;
        stroke-width: 5px;
        }
    ]]></style></defs>
<rect x="0" y="0" width="135.72159567510926" height="239.3028816273503" style="fill: blue"/>
<rect x="135.72159567510926" y="0" width="55.47397174973963" height="239.3028816273503" style="fill: white"/>
<rect x="191.1955674248489" y="0" width="56.78014213163874" height="117.4947857755639" style="fill: red"/>
<rect x="247.97570955648763" y="0" width="150.6256981438404" height="117.4947857755639" style="fill: white"/>
<rect x="398.601407700328" y="0" width="147.0878961177604" height="117.4947857755639" style="fill: white"/>
<rect x="545.6893038180884" y="0" width="61.293271366274666" height="117.4947857755639" style="fill: red"/>
<rect x="606.9825751843631" y="0" width="193.0174248156369" height="117.4947857755639" style="fill: yellow"/>
<rect x="191.1955674248489" y="117.4947857755639" width="56.78014213163874" height="121.8080958517864" style="fill: red"/>
<rect x="247.97570955648763" y="117.4947857755639" width="150.6256981438404" height="27.42778664008175" style="fill: red"/>
<rect x="398.601407700328" y="117.4947857755639" width="147.0878961177604" height="27.42778664008175" style="fill: white"/>
<rect x="545.6893038180884" y="117.4947857755639" width="61.293271366274666" height="27.42778664008175" style="fill: yellow"/>
<rect x="606.9825751843631" y="117.4947857755639" width="193.0174248156369" height="27.42778664008175" style="fill: yellow"/>
<rect x="247.97570955648763" y="144.92257241564565" width="121.63499772006406" height="17.341156791790183" style="fill: red"/>
<rect x="369.6107072765517" y="144.92257241564565" width="28.99070042377633" height="17.341156791790183" style="fill: white"/>
<rect x="398.601407700328" y="144.92257241564565" width="147.0878961177604" height="17.341156791790183" style="fill: red"/>
<rect x="545.6893038180884" y="144.92257241564565" width="61.293271366274666" height="17.341156791790183" style="fill: white"/>
<rect x="606.9825751843631" y="144.92257241564565" width="193.0174248156369" height="17.341156791790183" style="fill: white"/>
<rect x="247.97570955648763" y="162.26372920743583" width="27.642887723937122" height="60.218591147317795" style="fill: blue"/>
<rect x="275.61859728042475" y="162.26372920743583" width="93.99210999612694" height="60.218591147317795" style="fill: white"/>
<rect x="369.6107072765517" y="162.26372920743583" width="176.07859654153674" height="60.218591147317795" style="fill: blue"/>
<rect x="545.6893038180884" y="162.26372920743583" width="61.293271366274666" height="60.218591147317795" style="fill: white"/>
<rect x="606.9825751843631" y="162.26372920743583" width="193.0174248156369" height="77.03915241991447" style="fill: yellow"/>
<rect x="247.97570955648763" y="222.48232035475363" width="27.642887723937122" height="16.820561272596677" style="fill: white"/>
<rect x="275.61859728042475" y="222.48232035475363" width="93.99210999612694" height="16.820561272596677" style="fill: blue"/>
<rect x="369.6107072765517" y="222.48232035475363" width="176.07859654153674" height="16.820561272596677" style="fill: yellow"/>
<rect x="545.6893038180884" y="222.48232035475363" width="61.293271366274666" height="16.820561272596677" style="fill: yellow"/>
<rect x="0" y="239.3028816273503" width="58.973558237877825" height="17.59734090784525" style="fill: white"/>
<rect x="58.973558237877825" y="239.3028816273503" width="76.74803743723143" height="17.59734090784525" style="fill: white"/>
<rect x="135.72159567510926" y="239.3028816273503" width="55.47397174973963" height="17.59734090784525" style="fill: white"/>
<rect x="191.1955674248489" y="239.3028816273503" width="56.78014213163874" height="17.59734090784525" style="fill: white"/>
<rect x="247.97570955648763" y="239.3028816273503" width="27.642887723937122" height="17.59734090784525" style="fill: red"/>
<rect x="275.61859728042475" y="239.3028816273503" width="57.81522412231311" height="17.59734090784525" style="fill: white"/>
<rect x="333.43382140273786" y="239.3028816273503" width="36.17688587381383" height="17.59734090784525" style="fill: white"/>
<rect x="369.6107072765517" y="239.3028816273503" width="176.07859654153674" height="17.59734090784525" style="fill: red"/>
<rect x="545.6893038180884" y="239.3028816273503" width="61.293271366274666" height="17.59734090784525" style="fill: yellow"/>
<rect x="606.9825751843631" y="239.3028816273503" width="41.40882937108847" height="17.59734090784525" style="fill: yellow"/>
<rect x="648.3914045554516" y="239.3028816273503" width="32.88121101660897" height="17.59734090784525" style="fill: yellow"/>
<rect x="681.2726155720605" y="239.3028816273503" width="118.72738442793946" height="17.59734090784525" style="fill: blue"/>
<rect x="0" y="256.90022253519555" width="135.72159567510926" height="221.3752853173023" style="fill: white"/>
<rect x="135.72159567510926" y="256.90022253519555" width="112.25411388137837" height="221.3752853173023" style="fill: white"/>
<rect x="247.97570955648763" y="256.90022253519555" width="27.642887723937122" height="18.14811245073207" style="fill: white"/>
<rect x="275.61859728042475" y="256.90022253519555" width="57.81522412231311" height="18.14811245073207" style="fill: white"/>
<rect x="333.43382140273786" y="256.90022253519555" width="212.25548241535057" height="18.14811245073207" style="fill: red"/>
<rect x="545.6893038180884" y="256.90022253519555" width="102.70210073736314" height="18.14811245073207" style="fill: blue"/>
<rect x="648.3914045554516" y="256.90022253519555" width="96.58806255542743" height="18.14811245073207" style="fill: white"/>
<rect x="744.979467110879" y="256.90022253519555" width="55.020532889121" height="50.50392083982757" style="fill: white"/>
<rect x="247.97570955648763" y="275.0483349859276" width="27.642887723937122" height="103.28930206913162" style="fill: white"/>
<rect x="275.61859728042475" y="275.0483349859276" width="372.7728072750268" height="119.8947609629949" style="fill: yellow"/>
<rect x="648.3914045554516" y="275.0483349859276" width="96.58806255542743" height="324.9516650140724" style="fill: white"/>
<rect x="744.979467110879" y="307.4041433750231" width="55.020532889121" height="244.73629303600677" style="fill: white"/>
<rect x="247.97570955648763" y="378.33763705505925" width="27.642887723937122" height="16.605458893863272" style="fill: white"/>
<rect x="247.97570955648763" y="394.9430959489225" width="27.642887723937122" height="205.05690405107748" style="fill: white"/>
<rect x="275.61859728042475" y="394.9430959489225" width="372.7728072750268" height="205.05690405107748" style="fill: white"/>
<rect x="0" y="478.27550785249787" width="247.97570955648763" height="121.72449214750213" style="fill: red"/>
<rect x="744.979467110879" y="552.1404364110299" width="55.020532889121" height="47.859563588970104" style="fill: blue"/>
<line x1="191.1955674248489" y1="117.4947857755639" x2="800" y2="117.4947857755639"/>
<line x1="247.97570955648763" y1="144.92257241564565" x2="800" y2="144.92257241564565"/>
<line x1="247.97570955648763" y1="162.26372920743583" x2="800" y2="162.26372920743583"/>
<line x1="247.97570955648763" y1="222.48232035475363" x2="606.9825751843631" y2="222.48232035475363"/>
<line x1="0" y1="239.3028816273503" x2="800" y2="239.3028816273503"/>
<line x1="0" y1="256.90022253519555" x2="800" y2="256.90022253519555"/>
<line x1="247.97570955648763" y1="275.0483349859276" x2="744.979467110879" y2="275.0483349859276"/>
<line x1="744.979467110879" y1="307.4041433750231" x2="800" y2="307.4041433750231"/>
<line x1="247.97570955648763" y1="378.33763705505925" x2="275.61859728042475" y2="378.33763705505925"/>
<line x1="247.97570955648763" y1="394.9430959489225" x2="648.3914045554516" y2="394.9430959489225"/>
<line x1="0" y1="478.27550785249787" x2="247.97570955648763" y2="478.27550785249787"/>
<line x1="744.979467110879" y1="552.1404364110299" x2="800" y2="552.1404364110299"/>
<line x1="58.973558237877825" y1="239.3028816273503" x2="58.973558237877825" y2="256.90022253519555"/>
<line x1="135.72159567510926" y1="0" x2="135.72159567510926" y2="478.27550785249787"/>
<line x1="191.1955674248489" y1="0" x2="191.1955674248489" y2="256.90022253519555"/>
<line x1="247.97570955648763" y1="0" x2="247.97570955648763" y2="600"/>
<line x1="275.61859728042475" y1="162.26372920743583" x2="275.61859728042475" y2="600"/>
<line x1="333.43382140273786" y1="239.3028816273503" x2="333.43382140273786" y2="275.0483349859276"/>
<line x1="369.6107072765517" y1="144.92257241564565" x2="369.6107072765517" y2="256.90022253519555"/>
<line x1="398.601407700328" y1="0" x2="398.601407700328" y2="162.26372920743583"/>
<line x1="545.6893038180884" y1="0" x2="545.6893038180884" y2="275.0483349859276"/>
<line x1="606.9825751843631" y1="0" x2="606.9825751843631" y2="256.90022253519555"/>
<line x1="648.3914045554516" y1="239.3028816273503" x2="648.3914045554516" y2="600"/>
<line x1="681.2726155720605" y1="239.3028816273503" x2="681.2726155720605" y2="256.90022253519555"/>
<line x1="744.979467110879" y1="256.90022253519555" x2="744.979467110879" y2="600"/>
</svg>