<?xml version="1.0" encoding="utf-8"?>
<svg xmlns="http://www.w3.org/2000/svg"
 xmlns:xlink="http://www.w3.org/1999/xlink" width="800" height="600" >
<defs>
    <style type="text/css"><![CDATA[
        line {
        stroke: #000;
        stroke-width: 5px;
        }
    ]]></style></defs>
<rect x="0" y="0" width="62.62893456616921" height="247.63995973798478" style="fill: white"/>
<rect x="62.62893456616921" y="0" width="63.10458280866395" height="135.35880122468814" style="fill: yellow"/>
<rect x="125.73351737483316" y="0" width="41.04381824090976" height="135.35880122468814" style="fill: blue"/>
<rect x="166.7773356157429" y="0" width="155.84464801760527" height="135.35880122468814" style="fill: white"/>
<rect x="322.6219836333482" y="0" width="228.63079998142877" height="111.73260977901079" style="fill: blue"/>
<rect x="551.252783614777" y="0" width="193.63048446848507" height="111.73260977901079" style="fill: white"/>
<rect x="744.883268083262" y="0" width="55.11673191673799" height="111.73260977901079" style="fill: yellow"/>
<rect x="322.6219836333482" y="111.73260977901079" width="228.63079998142877" height="23.62619144567735" style="fill: blue"/>
<rect x="551.252783614777" y="111.73260977901079" width="193.63048446848507" height="23.62619144567735" style="fill: white"/>
<rect x="744.883268083262" y="111.73260977901079" width="55.11673191673799" height="23.62619144567735" style="fill: white"/>
<rect x="62.62893456616921" y="135.35880122468814" width="104.1484010495737" height="112.28115851329665" style="fill: white"/>
<rect x="166.7773356157429" y="135.35880122468814" width="37.38282327821622" height="112.28115851329665" style="fill: white"/>
<rect x="204.16015889395914" y="135.35880122468814" width="48.39872995618293" height="112.28115851329665" style="fill: yellow"/>
<rect x="252.55888885014207" y="135.35880122468814" width="70.06309478320611" height="77.28263594289544" style="fill: white"/>
<rect x="322.6219836333482" y="135.35880122468814" width="228.63079998142877" height="77.28263594289544" style="fill: red"/>
<rect x="551.252783614777" y="135.35880122468814" width="148.90480974814102" height="77.28263594289544" style="fill: white"/>
<rect x="700.157593362918" y="135.35880122468814" width="44.725674720344045" height="77.28263594289544" style="fill: white"/>
<rect x="744.883268083262" y="135.35880122468814" width="55.11673191673799" height="112.28115851329665" style="fill: yellow"/>
<rect x="252.55888885014207" y="212.64143716758358" width="70.06309478320611" height="34.99852257040121" style="fill: white"/>
<rect x="322.6219836333482" y="212.64143716758358" width="228.63079998142877" height="17.670344379513494" style="fill: white"/>
<rect x="551.252783614777" y="212.64143716758358" width="148.90480974814102" height="17.670344379513494" style="fill: red"/>
<rect x="700.157593362918" y="212.64143716758358" width="44.725674720344045" height="17.670344379513494" style="fill: red"/>
<rect x="322.6219836333482" y="230.31178154709707" width="118.6644199526209" height="17.328178190887712" style="fill: white"/>
<rect x="441.2864035859691" y="230.31178154709707" width="109.96638002880786" height="17.328178190887712" style="fill: white"/>
<rect x="551.252783614777" y="230.31178154709707" width="193.63048446848507" height="17.328178190887712" style="fill: red"/>
<rect x="0" y="247.63995973798478" width="62.62893456616921" height="55.56903825229335" style="fill: white"/>
<rect x="62.62893456616921" y="247.63995973798478" width="141.53122432778991" height="55.56903825229335" style="fill: white"/>
<rect x="204.16015889395914" y="247.63995973798478" width="118.46182473938904" height="55.56903825229335" style="fill: white"/>
<rect x="322.6219836333482" y="247.63995973798478" width="118.6644199526209" height="21.482973595881674" style="fill: yellow"/>
<rect x="441.2864035859691" y="247.63995973798478" width="109.96638002880786" height="21.482973595881674" style="fill: yellow"/>
<rect x="551.252783614777" y="247.63995973798478" width="103.6741992878508" height="21.482973595881674" style="fill: white"/>
<rect x="654.9269829026277" y="247.63995973798478" width="89.95628518063427" height="21.482973595881674" style="fill: white"/>
<rect x="744.883268083262" y="247.63995973798478" width="55.11673191673799" height="21.482973595881674" style="fill: yellow"/>
<rect x="322.6219836333482" y="269.12293333386646" width="88.97044443881026" height="34.08606465641168" style="fill: red"/>
<rect x="411.59242807215844" y="269.12293333386646" width="29.693975513810642" height="34.08606465641168" style="fill: white"/>
<rect x="441.2864035859691" y="269.12293333386646" width="109.96638002880786" height="34.08606465641168" style="fill: white"/>
<rect x="551.252783614777" y="269.12293333386646" width="103.6741992878508" height="34.08606465641168" style="fill: white"/>
<rect x="654.9269829026277" y="269.12293333386646" width="89.95628518063427" height="34.08606465641168" style="fill: white"/>
<rect x="744.883268083262" y="269.12293333386646" width="55.11673191673799" height="162.04343771818202" style="fill: white"/>
<rect x="0" y="303.20899799027814" width="62.62893456616921" height="111.13732708961084" style="fill: white"/>
<rect x="62.62893456616921" y="303.20899799027814" width="141.53122432778991" height="111.13732708961084" style="fill: white"/>
<rect x="204.16015889395914" y="303.20899799027814" width="207.4322691781993" height="111.13732708961084" style="fill: white"/>
<rect x="411.59242807215844" y="303.20899799027814" width="29.693975513810642" height="111.13732708961084" style="fill: yellow"/>
<rect x="441.2864035859691" y="303.20899799027814" width="109.96638002880786" height="111.13732708961084" style="fill: white"/>
<rect x="551.252783614777" y="303.20899799027814" width="103.6741992878508" height="63.48624805830298" style="fill: blue"/>
<rect x="654.9269829026277" y="303.20899799027814" width="89.95628518063427" height="63.48624805830298" style="fill: white"/>
<rect x="551.252783614777" y="366.6952460485811" width="103.6741992878508" height="47.65107903130786" style="fill: yellow"/>
<rect x="654.9269829026277" y="366.6952460485811" width="89.95628518063427" height="64.47112500346736" style="fill: white"/>
<rect x="0" y="414.34632507988897" width="62.62893456616921" height="16.820045972159505" style="fill: white"/>
<rect x="62.62893456616921" y="414.34632507988897" width="141.53122432778991" height="16.820045972159505" style="fill: white"/>
<rect x="204.16015889395914" y="414.34632507988897" width="207.4322691781993" height="16.820045972159505" style="fill: yellow"/>
<rect x="411.59242807215844" y="414.34632507988897" width="29.693975513810642" height="16.820045972159505" style="fill: red"/>
<rect x="441.2864035859691" y="414.34632507988897" width="109.96638002880786" height="16.820045972159505" style="fill: blue"/>
<rect x="551.252783614777" y="414.34632507988897" width="103.6741992878508" height="16.820045972159505" style="fill: blue"/>
<rect x="0" y="431.1663710520485" width="62.62893456616921" height="168.83362894795152" style="fill: red"/>
<rect x="62.62893456616921" y="431.1663710520485" width="348.9634935059892" height="39.74599482396974" style="fill: blue"/>
<rect x="411.59242807215844" y="431.1663710520485" width="29.693975513810642" height="39.74599482396974" style="fill: blue"/>
<rect x="441.2864035859691" y="431.1663710520485" width="109.96638002880786" height="39.74599482396974" style="fill: yellow"/>
<rect x="551.252783614777" y="431.1663710520485" width="193.63048446848507" height="39.74599482396974" style="fill: white"/>
<rect x="744.883268083262" y="431.1663710520485" width="55.11673191673799" height="39.74599482396974" style="fill: red"/>
<rect x="62.62893456616921" y="470.9123658760182" width="348.9634935059892" height="43.800637047787916" style="fill: white"/>
<rect x="411.59242807215844" y="470.9123658760182" width="29.693975513810642" height="43.800637047787916" style="fill: red"/>
<rect x="441.2864035859691" y="470.9123658760182" width="109.96638002880786" height="43.800637047787916" style="fill: white"/>
<rect x="551.252783614777" y="470.9123658760182" width="193.63048446848507" height="43.800637047787916" style="fill: white"/>
<rect x="744.883268083262" y="470.9123658760182" width="55.11673191673799" height="71.8788461120418" style="fill: blue"/>
<rect x="62.62893456616921" y="514.7130029238061" width="378.65746901979986" height="28.078209064253883" style="fill: red"/>
<rect x="441.2864035859691" y="514.7130029238061" width="109.96638002880786" height="28.078209064253883" style="fill: yellow"/>
<rect x="551.252783614777" y="514.7130029238061" width="193.63048446848507" height="28.078209064253883" style="fill: yellow"/>
<rect x="62.62893456616921" y="542.79121198806" width="378.65746901979986" height="57.20878801193999" style="fill: red"/>
<rect x="441.2864035859691" y="542.79121198806" width="109.96638002880786" height="57.20878801193999" style="fill: white"/>
<rect x="551.252783614777" y="542.79121198806" width="193.63048446848507" height="57.20878801193999" style="fill: white"/>
<rect x="744.883268083262" y="542.79121198806" width="55.11673191673799" height="57.20878801193999" style="fill: blue"/>
<line x1="322.6219836333482" y1="111.73260977901079" x2="800" y2="111.73260977901079"/>
<line x1="62.62893456616921" y1="135.35880122468814" x2="800" y2="135.35880122468814"/>
<line x1="252.55888885014207" y1="212.64143716758358" x2="744.883268083262" y2="212.64143716758358"/>
<line x1="322.6219836333482" y1="230.31178154709707" x2="744.883268083262" y2="230.31178154709707"/>
<line x1="0" y1="247.63995973798478" x2="800" y2="247.63995973798478"/>
<line x1="322.6219836333482" y1="269.12293333386646" x2="800" y2="269.12293333386646"/>
<line x1="0" y1="303.20899799027814" x2="744.883268083262" y2="303.20899799027814"/>
<line x1="551.252783614777" y1="366.6952460485811" x2="744.883268083262" y2="366.6952460485811"/>
<line x1="0" y1="414.34632507988897" x2="654.9269829026277" y2="414.34632507988897"/>
<line x1="0" y1="431.1663710520485" x2="800" y2="431.1663710520485"/>
<line x1="62.62893456616921" y1="470.9123658760182" x2="800" y2="470.9123658760182"/>
<line x1="62.62893456616921" y1="514.7130029238061" x2="744.883268083262" y2="514.7130029238061"/>
<line x1="62.62893456616921" y1="542.79121198806" x2="800" y2="542.79121198806"/>
<line x1="62.62893456616921" y1="0" x2="62.62893456616921" y2="600"/>
<line x1="125.73351737483316" y1="0" x2="125.73351737483316" y2="135.35880122468814"/>
<line x1="166.7773356157429" y1="0" x2="166.7773356157429" y2="247.63995973798478"/>
<line x1="204.16015889395914" y1="135.35880122468814" x2="204.16015889395914" y2="431.1663710520485"/>
<line x1="252.55888885014207" y1="135.35880122468814" x2="252.55888885014207" y2="247.63995973798478"/>
<line x1="322.6219836333482" y1="0" x2="322.6219836333482" y2="303.20899799027814"/>
<line x1="411.59242807215844" y1="269.12293333386646" x2="411.59242807215844" y2="514.7130029238061"/>
<line x1="441.2864035859691" y1="230.31178154709707" x2="441.2864035859691" y2="600"/>
<line x1="551.252783614777" y1="0" x2="551.252783614777" y2="600"/>
<line x1="654.9269829026277" y1="247.63995973798478" x2="654.9269829026277" y2="431.1663710520485"/>
<line x1="700.157593362918" y1="135.35880122468814" x2="700.157593362918" y2="230.31178154709707"/>
<line x1="744.883268083262" y1="0" x2="744.883268083262" y2="600"/>
</svg>